<svg width="21" height="25" viewBox="0 0 21 25" fill="none" xmlns="http://www.w3.org/2000/svg">
<path d="M8 22.2143H12.5714C12.5714 22.8205 12.3306 23.4019 11.902 23.8305C11.4733 24.2592 10.8919 24.5 10.2857 24.5C9.6795 24.5 9.09812 24.2592 8.66947 23.8305C8.24082 23.4019 8 22.8205 8 22.2143ZM20.5714 19.9286V21.0714H0V19.9286L2.28571 17.6429V10.7857C2.28035 9.06269 2.83461 7.38451 3.86513 6.00362C4.89565 4.62272 6.3467 3.61379 8 3.12857V2.78571C8 2.17951 8.24082 1.59812 8.66947 1.16947C9.09812 0.740816 9.6795 0.5 10.2857 0.5C10.8919 0.5 11.4733 0.740816 11.902 1.16947C12.3306 1.59812 12.5714 2.17951 12.5714 2.78571V3.12857C14.2247 3.61379 15.6758 4.62272 16.7063 6.00362C17.7368 7.38451 18.2911 9.06269 18.2857 10.7857V17.6429L20.5714 19.9286ZM16 10.7857C16 9.27019 15.398 7.81674 14.3263 6.7451C13.2547 5.67347 11.8012 5.07143 10.2857 5.07143C8.77019 5.07143 7.31674 5.67347 6.2451 6.7451C5.17347 7.81674 4.57143 9.27019 4.57143 10.7857V18.7857H16V10.7857Z" fill="#607080"/>
</svg>
