<svg width="24" height="25" viewBox="0 0 24 25" fill="none" xmlns="http://www.w3.org/2000/svg">
<path d="M20.296 10.2959L12.796 17.7959C12.6914 17.9008 12.5673 17.984 12.4305 18.0408C12.2938 18.0976 12.1471 18.1268 11.9991 18.1268C11.851 18.1268 11.7044 18.0976 11.5677 18.0408C11.4309 17.984 11.3067 17.9008 11.2022 17.7959L3.70221 10.2959C3.49086 10.0846 3.37213 9.79793 3.37213 9.49904C3.37213 9.20016 3.49086 8.91351 3.70221 8.70217C3.91355 8.49082 4.2002 8.37209 4.49908 8.37209C4.79797 8.37209 5.08461 8.49082 5.29596 8.70217L12 15.4062L18.7041 8.70123C18.9154 8.48989 19.2021 8.37115 19.501 8.37115C19.7998 8.37115 20.0865 8.48989 20.2978 8.70123C20.5092 8.91258 20.6279 9.19922 20.6279 9.49811C20.6279 9.79699 20.5092 10.0836 20.2978 10.295L20.296 10.2959Z" fill="#607080"/>
</svg>
