<svg width="24" height="25" viewBox="0 0 24 25" fill="none" xmlns="http://www.w3.org/2000/svg">
<path d="M12 24.5C5.4 24.5 0 19.1 0 12.5C0 5.9 5.4 0.5 12 0.5C18.6 0.5 24 5.9 24 12.5C24 19.1 18.6 24.5 12 24.5ZM12 1.7C6.06 1.7 1.2 6.56 1.2 12.5C1.2 18.44 6.06 23.3 12 23.3C17.94 23.3 22.8 18.44 22.8 12.5C22.8 6.56 17.94 1.7 12 1.7Z" fill="#152D73"/>
<path d="M12.06 17.78C11.88 17.78 11.76 17.72 11.64 17.6C11.4 17.36 11.4 17 11.64 16.76L16.02 12.38L14.94 11.3C14.7 11.06 14.7 10.7 14.94 10.46C15.18 10.22 15.54 10.22 15.78 10.46L17.28 11.96C17.52 12.2 17.52 12.56 17.28 12.8L12.48 17.6C12.36 17.72 12.18 17.78 12.06 17.78ZM13.26 9.37999C13.08 9.37999 12.96 9.31999 12.84 9.19999L11.64 7.99999C11.4 7.75999 11.4 7.39999 11.64 7.15999C11.88 6.91999 12.24 6.91999 12.48 7.15999L13.68 8.35999C13.92 8.59999 13.92 8.95999 13.68 9.19999C13.56 9.31999 13.44 9.37999 13.26 9.37999Z" fill="#152D73"/>
<path d="M8.45999 17.78C8.27999 17.78 8.15999 17.72 8.03999 17.6C7.79999 17.36 7.79999 17 8.03999 16.76L12.42 12.38L8.03999 7.99999C7.79999 7.75999 7.79999 7.39999 8.03999 7.15999C8.27999 6.91999 8.63999 6.91999 8.87999 7.15999L13.68 11.96C13.92 12.2 13.92 12.56 13.68 12.8L8.87999 17.6C8.75999 17.72 8.63999 17.78 8.45999 17.78Z" fill="#152D73"/>
</svg>
