<svg width="19" height="19" viewBox="0 0 19 19" fill="none" xmlns="http://www.w3.org/2000/svg">
<path d="M10.9784 3.98857L10.1246 3.13362V4.34189V12.8747C10.1246 13.2209 9.84574 13.4998 9.49958 13.4998C9.15343 13.4998 8.87453 13.2209 8.87453 12.8747V4.34189V3.13478L8.02098 3.98833L5.44038 6.56893C5.19617 6.81314 4.79905 6.81314 4.55483 6.56893C4.31062 6.32472 4.31062 5.92759 4.55483 5.68338L9.05505 1.18316C9.29926 0.938947 9.69639 0.938947 9.9406 1.18316L14.4408 5.68338C14.685 5.92759 14.685 6.32472 14.4408 6.56893C14.1966 6.81314 13.7995 6.81314 13.5553 6.56893L10.9784 3.98857ZM2.74926 13.3747H6.79495C7.03052 14.6538 8.15308 15.6248 9.49958 15.6248C10.8461 15.6248 11.9686 14.6538 12.2042 13.3747H16.2499C17.2148 13.3747 18 14.1599 18 15.1248V16.2499C18 17.2148 17.2148 18 16.2499 18H2.74926C1.78432 18 0.999146 17.2148 0.999146 16.2499V15.1248C0.999146 14.1599 1.78432 13.3747 2.74926 13.3747ZM15.6874 17.0312C16.0438 17.0312 16.3856 16.8896 16.6376 16.6376C16.8896 16.3856 17.0312 16.0438 17.0312 15.6874C17.0312 15.331 16.8896 14.9892 16.6376 14.7372C16.3856 14.4852 16.0438 14.3436 15.6874 14.3436C15.331 14.3436 14.9892 14.4852 14.7372 14.7372C14.4852 14.9892 14.3436 15.331 14.3436 15.6874C14.3436 16.0438 14.4852 16.3856 14.7372 16.6376C14.9892 16.8896 15.331 17.0312 15.6874 17.0312Z" stroke="#152D73"/>
</svg>
